# xmcd
#
# Track frame offsets:
#	150
#	16009
#	32410
#	50935
#	65765
#	86022
#	103885
#	117817
#	140500
#	155417
#	173155
#	195922
#	216130
#	243007
#
# Disc length: 3488 seconds
#
# Revision: 0
# Processed by: cddbd v1.5.1PL2 Copyright (c) Steve Scherf et al.
# Submitted via: EasyCDDAExtractor 9.0.0.1
#
DISCID=b80d9e0e
DTITLE=eysuhl¢â  - Fm Collection [Sonybmg Cp2K1999] Disc1
DYEAR=1999
DGENRE=Pop
TTITLE0=Wanted - The Dooleys 
TTITLE1=Sexy Music - The Nolans
TTITLE2=Gonna Make You Sweat (The Slammin' Vocal Club Mix)  - C and C Music Fact
TTITLE2=ory 
TTITLE3=Jump  - Kris Kross 
TTITLE4=Step By Step  - New Kids On The Block 
TTITLE5=Eternal Flame  - Bangles 
TTITLE6=Hold Me Now  - Johnny Logan 
TTITLE7=Third Time Lucky - Basia
TTITLE8=In Your Letter  - Reo Speedwagon 
TTITLE9=Holding On - Beverley Craven
TTITLE10=Who's Crying Now  - Journey 
TTITLE11=You  - Ten Sharp 
TTITLE12=Through The Barricades  - Spandau Ballet
TTITLE13=Sometimes When We Touch  - Dan Hill 
EXTD=
EXTT0=
EXTT1=
EXTT2=
EXTT3=
EXTT4=
EXTT5=
EXTT6=
EXTT7=
EXTT8=
EXTT9=
EXTT10=
EXTT11=
EXTT12=
EXTT13=
PLAYORDER=
